<svg xmlns="http://www.w3.org/2000/svg" viewBox="0 0 256 256" role="img" aria-label="Jungle Lab">
  <defs>
    <linearGradient id="leafFill" x1="0%" y1="0%" x2="100%" y2="100%">
      <stop offset="0%" stop-color="#729f2a"/>
      <stop offset="48%" stop-color="#214f38"/>
      <stop offset="100%" stop-color="#102820"/>
    </linearGradient>
    <linearGradient id="leafGlow" x1="0%" y1="0%" x2="100%" y2="100%">
      <stop offset="0%" stop-color="#9cca48" stop-opacity=".9"/>
      <stop offset="100%" stop-color="#9cca48" stop-opacity="0"/>
    </linearGradient>
  </defs>
  <path d="M208 30c8 75-15 135-55 171-28 24-61 34-88 38 5-36 17-69 41-99 25-31 58-55 102-80Z" fill="url(#leafFill)"/>
  <path d="M176 36c-9 11-17 17-25 25-34 34-56 75-71 126" fill="none" stroke="#eef7eb" stroke-linecap="round" stroke-width="12"/>
  <path d="M114 82c-17 10-28 24-39 40" fill="none" stroke="#eef7eb" stroke-linecap="round" stroke-width="9"/>
  <path d="M138 110c23 0 45 2 68 8" fill="none" stroke="#eef7eb" stroke-linecap="round" stroke-width="8"/>
  <path d="M124 132c22 0 48 2 75 10" fill="none" stroke="#eef7eb" stroke-linecap="round" stroke-width="8"/>
  <path d="M111 154c24 0 49 3 77 11" fill="none" stroke="#eef7eb" stroke-linecap="round" stroke-width="8"/>
  <path d="M96 176c25 2 50 6 75 14" fill="none" stroke="#eef7eb" stroke-linecap="round" stroke-width="8"/>
  <g fill="#eef7eb">
    <circle cx="197" cy="118" r="8"/>
    <circle cx="190" cy="142" r="8"/>
    <circle cx="178" cy="166" r="8"/>
    <circle cx="163" cy="188" r="8"/>
  </g>
  <path d="M67 199c15-74 56-122 117-163" fill="none" stroke="#17352a" stroke-linecap="round" stroke-width="14"/>
  <path d="M108 35c42 5 69 13 97 42" fill="url(#leafGlow)" opacity=".55"/>
</svg>
